<?xml version="1.0" encoding="UTF-8"?>
<!DOCTYPE svg PUBLIC "-//W3C//DTD SVG 1.1//EN" "http://www.w3.org/Graphics/SVG/1.1/DTD/svg11.dtd">
<svg xmlns="http://www.w3.org/2000/svg" version="1.1" width="32px" height="32px" style="shape-rendering:geometricPrecision; text-rendering:geometricPrecision; image-rendering:optimizeQuality; fillRule:evenodd; clip-rule:evenodd" xmlns:xlink="http://www.w3.org/1999/xlink">
<g><path style="opacity:0.801" fill="#8d07f8" d="M -0.5,17.5 C -0.5,16.5 -0.5,15.5 -0.5,14.5C 3.28865,13.4039 3.28865,12.7373 -0.5,12.5C -0.5,11.1667 -0.5,9.83333 -0.5,8.5C 0.833333,8.5 2.16667,8.5 3.5,8.5C 3.5,7.5 3.5,6.5 3.5,5.5C 4.97782,5.23798 6.31116,5.57131 7.5,6.5C 6.49367,7.39567 6.49367,8.06233 7.5,8.5C 8.38568,7.67504 8.71901,6.67504 8.5,5.5C 9.97782,5.23798 11.3112,5.57131 12.5,6.5C 12.2907,7.08605 11.9574,7.58605 11.5,8C 13.1066,9.04899 13.7733,10.549 13.5,12.5C 12.325,12.281 11.325,12.6143 10.5,13.5C 11.8532,14.5237 12.5198,15.857 12.5,17.5C 10.3281,18.8011 7.99479,19.8011 5.5,20.5C 5.5408,16.7566 4.87413,16.5899 3.5,20C 2.55198,20.4828 1.55198,20.6495 0.5,20.5C 0.737305,19.209 0.403972,18.209 -0.5,17.5 Z M 5.5,12.5 C 8.00092,12.5109 8.16758,13.1776 6,14.5C 5.53566,13.9056 5.36899,13.2389 5.5,12.5 Z"/></g>
<g><path style="opacity:0.8" fill="#8d07f8" d="M 31.5,9.5 C 31.5,13.1667 31.5,16.8333 31.5,20.5C 30.5207,21.7653 29.5207,23.0986 28.5,24.5C 26.8333,25.8333 25.1667,25.8333 23.5,24.5C 28.8235,18.1271 28.8235,11.7937 23.5,5.5C 25.0745,4.36912 26.7412,4.20245 28.5,5C 29.3994,6.65161 30.3994,8.15161 31.5,9.5 Z"/></g>
<g><path style="opacity:0.877" fill="#8c07f8" d="M 16.5,9.5 C 17.8333,9.5 19.1667,9.5 20.5,9.5C 20.5,10.8333 20.5,12.1667 20.5,13.5C 19.1667,13.5 17.8333,13.5 16.5,13.5C 16.5,12.1667 16.5,10.8333 16.5,9.5 Z"/></g>
<g><path style="opacity:0.876" fill="#8c07f8" d="M 16.5,16.5 C 17.8333,16.5 19.1667,16.5 20.5,16.5C 20.5,17.8333 20.5,19.1667 20.5,20.5C 19.1667,20.5 17.8333,20.5 16.5,20.5C 16.5,19.1667 16.5,17.8333 16.5,16.5 Z"/></g>
</svg>
